<?xml version="1.0" encoding="utf-8"?>
<!-- Generator: Adobe Illustrator 22.0.1, SVG Export Plug-In . SVG Version: 6.00 Build 0)  -->
<svg version="1.1" id="Capa_1" xmlns="http://www.w3.org/2000/svg" xmlns:xlink="http://www.w3.org/1999/xlink" x="0px" y="0px"
	 viewBox="0 0 841.9 595.3" style="enable-background:new 0 0 841.9 595.3;" xml:space="preserve">
<style type="text/css">
	.st0{fill:#3E2C1D;}
</style>
<g>
	<path class="st0" d="M402.2,451.6c14.4-14.4,28.7-28.7,43-43c-3.9,0.6-8,1.2-12.1,1.7c-10.6,1.2-21.1,0.9-31.6-0.9
		c-1.8-0.3-2.4,0.8-3.3,1.6c-13.2,13.2-26.4,26.3-39.5,39.6c-1.5,1.5-3,2.1-5.1,2.1c-9.8-0.3-19.5,0.5-29.3-0.7
		c-27.1-3.2-51-25.7-55.6-52.5c-2.1-11.8-0.8-23.8-1.2-35.7c0-1.1,0.7-1.6,1.3-2.2c36.4-36.4,72.6-72.9,109.2-109
		c23.1-22.8,62.8-22.1,86.2,0.7c12.8,12.5,19.4,27.6,19.7,45.4c0,0.6,0,1.1,0,1.8c1.3-0.1,1.7-1,2.3-1.6c8-8,16-16,24-23.9
		c1.5-1.4,2-2.7,1.2-4.8c-13.1-36.4-38.4-58.8-76.6-65c-30.2-4.9-57.2,3.6-79.4,24.7c-20.2,19.2-39.6,39.4-59.3,59.1
		c-9.4,9.4-18.9,18.9-28.3,28.3c-0.9-0.8-0.5-1.8-0.5-2.6c0-34.3-0.1-68.7,0-103c0-33.1,25.5-61.2,58.4-64.8
		c2.8-0.3,5.7-0.5,8.5-0.5c33.4,0,66.8,0,100.2,0c1.1,0,2.2,0,3.3,0c-14.2,14.2-28.4,28.3-42.5,42.5c0.2,0.3,0.4,0.6,0.6,0.9
		c4.5-0.5,9-1.6,13.6-2c9.9-0.9,19.7-0.7,29.5,1c1.8,0.3,2.8-0.1,3.9-1.3c13.1-13.1,26.2-26.2,39.3-39.4c1.3-1.3,2.5-1.8,4.2-1.8
		c9.9,0.3,19.7-0.4,29.6,0.5c26.9,2.6,51.5,25.3,56.4,52.1c2.1,11.8,0.9,23.8,1.3,35.7c0,1.2-0.7,1.8-1.4,2.6
		c-35.2,35.1-70.3,70.3-105.5,105.4c-10.6,10.6-23.1,17.4-38.1,19.4c-28,3.7-55.8-12.3-66.6-38.4c-3.4-8.3-5.1-16.9-4.9-25.9
		c-1-0.4-1.2,0.5-1.6,0.9c-8.4,8.3-16.7,16.7-25.1,25c-1.1,1.1-1.7,2-1.1,3.7c12.8,36.8,38.1,59.5,76.6,65.8
		c32.8,5.4,60.8-5.3,84.2-28.8c27.2-27.4,54.5-54.7,81.8-82c0.4-0.4,0.7-0.7,1.1-1c0.7,0.2,0.6,0.8,0.6,1.3
		c0,35.8,0.2,71.5-0.2,107.3c-0.3,29.3-23.5,56-52.6,61.4c-4.3,0.8-8.6,1.3-13,1.3c-34.5,0-69.1,0-103.6,0c-0.6,0-1.2,0-1.7,0
		C402.6,452.3,402.4,451.9,402.2,451.6z"/>
</g>
</svg>
